Coordinates
version=1
nRows=24
nColumns=24
inDegrees=yes

Units are S.I. units (second, meters, Newtons, ...)
Angles are in degrees.

endheader
time	pelvis_tilt	pelvis_list	pelvis_rotation	pelvis_tx	pelvis_ty	pelvis_tz	hip_flexion_r	hip_adduction_r	hip_rotation_r	knee_angle_r	ankle_angle_r	subtalar_angle_r	mtp_angle_r	hip_flexion_l	hip_adduction_l	hip_rotation_l	knee_angle_l	ankle_angle_l	subtalar_angle_l	mtp_angle_l	lumbar_extension	lumbar_bending	lumbar_rotation
      1.32900000	     -1.50252520	      6.36252374	      0.68589159	      0.21990843	      0.99621020	      0.31914399	     18.52793844	     -7.92065078	     -1.35435510	    -67.86236983	     -4.22331569	     -7.38606466	      6.84214348	      9.19532085	     11.69983446	      4.67636294	    -11.27525574	      0.49496307	    -13.26433802	     -0.72892548	      0.23420708	     -4.55483158	      2.35493924
      1.33316667	     -1.41063279	      6.27193216	      0.77275431	      0.22500447	      0.99689995	      0.31893367	     18.98515969	     -7.83576688	     -1.33893615	    -67.65139489	     -3.44340648	     -7.72391699	      6.71629866	      8.61692943	     11.62418614	      4.91571633	    -11.02154092	      0.62646865	    -13.30897690	     -0.77715632	      0.11118105	     -4.45005819	      2.23834496
      1.33733333	     -1.28572456	      6.19439656	      0.83813775	      0.23011244	      0.99760829	      0.31874787	     19.39757474	     -7.75757742	     -1.30591917	    -67.39422736	     -2.61923216	     -7.93088613	      2.11201566	      7.96959742	     11.56251023	      5.21071861	    -10.69766349	      0.69344444	    -13.50061186	     -2.59147873	     -0.04286830	     -4.37085671	      2.08964116
      1.34150000	     -1.23736881	      6.09315240	      0.95475075	      0.23516311	      0.99816481	      0.31852833	     19.87500013	     -7.66919559	     -1.32701327	    -67.08299230	     -1.86773506	     -8.24915160	      2.10949613	      7.46919332	     11.46857340	      5.42939031	    -10.50581221	      0.90631747	    -13.44642583	     -2.58704900	     -0.10808273	     -4.27306525	      2.01780048
      1.34566667	     -1.12421170	      6.01217997	      1.02364933	      0.24021813	      0.99879038	      0.31836565	     20.28002249	     -7.58575661	     -1.29975647	    -66.72311639	     -1.17528862	     -8.69575154	      2.07754123	      6.87525534	     11.38775590	      5.62841952	    -10.25376454	      1.04596289	    -13.44881440	     -2.59284618	     -0.26930261	     -4.17454685	      1.85375524
      1.34983333	     -1.02633979	      5.92796609	      1.10658023	      0.24525953	      0.99935718	      0.31818492	     20.68461760	     -7.50679790	     -1.29307754	    -66.31071765	     -0.47290153	     -9.01853372	      2.04247681	      6.30510921	     11.30277743	      5.83604940	    -10.01604574	      1.19700643	    -13.45914687	     -2.60242905	     -0.40247161	     -4.07822730	      1.74689754
      1.35400000	     -0.94583477	      5.82658519	      1.19709966	      0.25027952	      0.99986314	      0.31799541	     21.09290736	     -7.41261111	     -1.30055180	    -65.84671586	      0.22189280	     -9.27816896	      2.02260209	      5.76902315	     11.19701571	      6.03380744	     -9.80718230	      1.36699943	    -13.44277998	     -2.60787500	     -0.51508464	     -3.95329716	      1.68254440
      1.35816667	     -0.83550910	      5.74062434	      1.27126168	      0.25530529	      1.00039446	      0.31785141	     21.45545827	     -7.32356715	     -1.28742135	    -65.32831831	      0.85457607	     -9.64288809	      1.96927211	      5.18416743	     11.10011957	      6.22197924	     -9.55824849	      1.51830770	    -13.44558298	     -2.62513713	     -0.66066476	     -3.87169756	      1.55288675
      1.36233333	     -0.75974309	      5.65196674	      1.35471560	      0.26029732	      1.00082310	      0.31767362	     21.84882392	     -7.24385835	     -1.29406080	    -64.77663769	      1.49635760	     -9.88056867	      1.94122289	      4.65553654	     11.00121886	      6.40470773	     -9.34508271	      1.68924406	    -13.41633412	     -2.63391951	     -0.77886424	     -3.75061046	      1.48960471
      1.36650000	     -0.62252629	      5.58048597	      1.41695270	      0.26531960	      1.00131844	      0.31755115	     22.15535381	     -7.16922333	     -1.28165169	    -64.16510164	      2.07651774	    -10.21819601	      1.86680558	      4.04045555	     10.91229448	      6.57478213	     -9.08918189	      1.84216635	    -13.40435834	     -2.65924035	     -0.95476903	     -3.67480319	      1.35863752
      1.37066667	     -0.56917762	      5.48951548	      1.50667408	      0.27028255	      1.00164938	      0.31739929	     22.54069359	     -7.08078004	     -1.28953755	    -63.51292883	      2.66672021	    -10.42523812	      1.82893086	      3.55242147	     10.80481899	      6.74274900	     -8.90264118	      2.02354259	    -13.37140178	     -2.67108570	     -1.03959733	     -3.57397878	      1.30175591
      1.37483333	     -0.46654528	      5.41630714	      1.57848552	      0.27526215	      1.00202626	      0.31727165	     22.85819904	     -7.00862828	     -1.29093717	    -62.81499368	      3.22965049	    -10.67578569	      1.77886761	      2.99660278	     10.71006671	      6.89358154	     -8.68372345	      2.19767360	    -13.32934532	     -2.68681287	     -1.18043399	     -3.48917360	      1.21746289
      1.37900000	     -0.36716810	      5.34094368	      1.64946387	      0.28023130	      1.00236630	      0.31715549	     23.16284695	     -6.93106717	     -1.29299388	    -62.06682595	      3.74107549	    -10.90692150	      1.72285178	      2.44692139	     10.61038803	      7.04017001	     -8.46641460	      2.37424903	    -13.28644228	     -2.70381040	     -1.31902710	     -3.40197716	      1.13219624
      1.38316667	     -0.26133344	      5.28090804	      1.70873458	      0.28520029	      1.00265988	      0.31704942	     23.45277638	     -6.87077548	     -1.29142408	    -61.28574825	      4.19186059	    -11.14097954	      1.62588035	      1.88213879	     10.52386538	      7.17518878	     -8.22834230	      2.55207480	    -13.23697385	     -2.73366672	     -1.47088442	     -3.33310239	      1.01931346
      1.38733333	     -0.21864314	      5.21864539	      1.78950201	      0.29012775	      1.00284330	      0.31692883	     23.79445161	     -6.81096363	     -1.29886210	    -60.46152313	      4.65593438	    -11.28937459	      1.57328101	      1.41440371	     10.43784855	      7.31981952	     -8.04766397	      2.73061859	    -13.19448504	     -2.74846270	     -1.54807034	     -3.25774659	      0.96788253
      1.39150000	     -0.13863410	      5.16054151	      1.85788859	      0.29506097	      1.00303656	      0.31683383	     24.08014451	     -6.75264529	     -1.30759797	    -59.59348109	      5.08322620	    -11.45623845	      1.51056413	      0.89708896	     10.35107940	      7.44708568	     -7.84367204	      2.91468997	    -13.14664679	     -2.76529540	     -1.67118760	     -3.19202470	      0.89570811
      1.39566667	     -0.04325973	      5.11537852	      1.91346600	      0.30000974	      1.00321567	      0.31675282	     24.33387909	     -6.70499657	     -1.31128311	    -58.68273099	      5.42501531	    -11.62809892	      1.39610011	      0.35363019	     10.27519768	      7.56271947	     -7.61938915	      3.09081510	    -13.09584386	     -2.79650722	     -1.81027060	     -3.13982073	      0.78687107
      1.39983333	     -0.02004975	      5.06310195	      1.99146612	      0.30491628	      1.00326781	      0.31665685	     24.65104437	     -6.65524591	     -1.32979770	    -57.73495492	      5.78822738	    -11.72368180	      1.34253309	     -0.08601101	     10.19527825	      7.69382673	     -7.44461082	      3.27111196	    -13.05574935	     -2.80894712	     -1.87499772	     -3.08159069	      0.74648712
      1.40400000	      0.08416136	      5.03286563	      2.04415230	      0.30986091	      1.00339028	      0.31657510	     24.86170907	     -6.62512761	     -1.34059465	    -56.74350084	      6.07941420	    -11.85932576	      1.22622984	     -0.63625703	     10.13435722	      7.80507154	     -7.22495216	      3.44329594	    -13.01318158	     -2.83827510	     -2.01562808	     -3.04038098	      0.64402157
      1.40816667	      0.14064469	      5.00219565	      2.10885895	      0.31476676	      1.00340828	      0.31649962	     25.11216448	     -6.59600745	     -1.36130160	    -55.72019296	      6.35576306	    -11.94476815	      1.08630535	     -1.12223800	     10.07368152	      7.93278583	     -7.02611183	      3.60916141	    -12.99038921	     -2.87358894	     -2.12306332	     -3.01119691	      0.56094448
      1.41233333	      0.16286249	      4.96911547	      2.18417356	      0.31966172	      1.00335466	      0.31640630	     25.37824622	     -6.56692783	     -1.39007306	    -54.65271593	      6.62228761	    -11.99916183	      1.02097555	     -1.55121443	     10.01396594	      8.05552698	     -6.86964306	      3.78630188	    -12.96425736	     -2.88721101	     -2.17041168	     -2.95932963	      0.52332363
      1.41650000	      0.19458587	      4.94594149	      2.24544550	      0.32456572	      1.00326534	      0.31633945	     25.62390429	     -6.54844965	     -1.42543160	    -53.55787619	      6.83937896	    -12.05850603	      0.94352024	     -2.00441058	      9.96096083	      8.16275416	     -6.68054140	      3.95744023	    -12.94192152	     -2.90319887	     -2.24676640	     -2.94254224	      0.45837774
      1.42066667	      0.23040362	      4.93077869	      2.30235762	      0.32946422	      1.00315170	      0.31627544	     25.84847685	     -6.53558173	     -1.45898648	    -52.42487154	      7.02086258	    -12.10846841	      0.86033223	     -2.46035008	      9.91702713	      8.26904294	     -6.49566886	      4.12361819	    -12.92359155	     -2.92005603	     -2.32277336	     -2.92244206	      0.38896355
      1.42483333	      0.23376113	      4.93283318	      2.36072042	      0.33435187	      1.00295771	      0.31620263	     26.09450439	     -6.54112152	     -1.48827643	    -51.26359092	      7.18550997	    -12.13915755	      0.79095093	     -2.87306591	      9.89536043	      8.37871261	     -6.32843562	      4.28413240	    -12.90722003	     -2.93337572	     -2.34933026	     -2.91014639	      0.33226532
